<svg xmlns="http://www.w3.org/2000/svg" width="24" height="24" fill="none" viewBox="0 0 24 24">
    <path fill="#5956C3" d="M4.73 19.998c-.097 0-.191-.018-.28-.055-.088-.036-.168-.09-.236-.157-.135-.138-.211-.323-.211-.515 0-.193.076-.378.211-.515L18.757 4.213c.136-.136.322-.213.515-.213s.378.077.515.213c.136.137.213.322.213.515s-.077.378-.213.515L5.244 19.786c-.068.067-.148.12-.236.157-.089.037-.183.055-.279.055z"/>
    <path fill="#5956C3" d="M19.27 19.998c-.095 0-.19-.018-.278-.055-.088-.036-.169-.09-.236-.157L4.213 5.243C4.077 5.106 4 4.92 4 4.728s.077-.378.213-.515C4.35 4.077 4.535 4 4.728 4s.378.077.515.213l14.543 14.543c.135.137.21.322.21.515 0 .192-.075.377-.21.515-.068.067-.148.12-.237.157-.088.037-.183.055-.278.055z"/>
</svg>
