<svg width="24" height="24" viewBox="0 0 24 24" fill="none" xmlns="http://www.w3.org/2000/svg">
<path fill-rule="evenodd" clip-rule="evenodd" d="M12.6363 2.2445L21.7273 10.6285C21.9017 10.7894 22 11.0095 22 11.2394V21.572C22 21.8082 21.7965 21.9997 21.5455 21.9997H15.1818C14.9308 21.9997 14.7273 21.8082 14.7273 21.572V16.8677C14.7273 15.5011 13.5919 14.384 12.1602 14.3059L12 14.3016C10.5476 14.3016 9.36031 15.3699 9.27736 16.7169L9.27273 16.8677V21.572C9.27271 21.8082 9.06921 21.9997 8.81818 21.9997L2.45455 22C2.2314 22 2.0458 21.8487 2.00731 21.6492L2 21.5723V11.2394C2 11.0095 2.0983 10.7894 2.27274 10.6285L11.3637 2.2445C11.7171 1.9185 12.2829 1.9185 12.6363 2.2445Z" fill="black"/>
</svg>
