<svg width="24" height="24" viewBox="0 0 24 24" fill="none" xmlns="http://www.w3.org/2000/svg">
<mask id="path-1-inside-1" fill="white">
<path d="M14.6472 12.2231C15.768 11.6568 16.6582 10.7482 17.176 9.6421C17.6938 8.53597 17.8093 7.29599 17.5041 6.11981C17.199 4.94364 16.4907 3.89897 15.4922 3.15231C14.4937 2.40566 13.2624 2 11.9947 2C10.7269 2 9.49569 2.40566 8.49719 3.15231C7.49868 3.89897 6.79039 4.94364 6.48522 6.11981C6.18004 7.29599 6.29555 8.53597 6.81333 9.6421C7.33111 10.7482 8.22135 11.6568 9.34216 12.2231C7.23434 12.7847 5.37626 13.9893 4.05083 15.6536C2.7254 17.3179 2.00524 19.3506 2 21.4422V22H22V21.4929C22.0057 19.3913 21.2893 17.346 19.961 15.6713C18.6326 13.9966 16.7657 12.7852 14.6472 12.2231ZM7.36869 7.47664C7.36257 6.60629 7.6259 5.75365 8.12555 5.02603C8.6252 4.29841 9.33885 3.72832 10.1767 3.3875C11.0145 3.04668 11.9391 2.95036 12.834 3.11067C13.729 3.27097 14.5544 3.68074 15.2062 4.2884C15.8581 4.89606 16.3074 5.67446 16.4976 6.52564C16.6877 7.37682 16.6102 8.26275 16.2749 9.07193C15.9395 9.88111 15.3612 10.5774 14.6128 11.0731C13.8644 11.5689 12.9793 11.842 12.0689 11.858H11.8992C10.6954 11.8368 9.54786 11.3669 8.70146 10.5483C7.85506 9.72981 7.37679 8.62752 7.36869 7.47664ZM3.03979 20.9858C3.16585 18.8137 4.14934 16.7683 5.79171 15.2624C7.43408 13.7564 9.61299 12.9022 11.8886 12.8722H12.0689C14.3453 12.8998 16.5256 13.7533 18.1685 15.2597C19.8114 16.7661 20.7941 18.8129 20.9177 20.9858H3.03979Z"/>
</mask>
<path d="M14.6472 12.2231C15.768 11.6568 16.6582 10.7482 17.176 9.6421C17.6938 8.53597 17.8093 7.29599 17.5041 6.11981C17.199 4.94364 16.4907 3.89897 15.4922 3.15231C14.4937 2.40566 13.2624 2 11.9947 2C10.7269 2 9.49569 2.40566 8.49719 3.15231C7.49868 3.89897 6.79039 4.94364 6.48522 6.11981C6.18004 7.29599 6.29555 8.53597 6.81333 9.6421C7.33111 10.7482 8.22135 11.6568 9.34216 12.2231C7.23434 12.7847 5.37626 13.9893 4.05083 15.6536C2.7254 17.3179 2.00524 19.3506 2 21.4422V22H22V21.4929C22.0057 19.3913 21.2893 17.346 19.961 15.6713C18.6326 13.9966 16.7657 12.7852 14.6472 12.2231ZM7.36869 7.47664C7.36257 6.60629 7.6259 5.75365 8.12555 5.02603C8.6252 4.29841 9.33885 3.72832 10.1767 3.3875C11.0145 3.04668 11.9391 2.95036 12.834 3.11067C13.729 3.27097 14.5544 3.68074 15.2062 4.2884C15.8581 4.89606 16.3074 5.67446 16.4976 6.52564C16.6877 7.37682 16.6102 8.26275 16.2749 9.07193C15.9395 9.88111 15.3612 10.5774 14.6128 11.0731C13.8644 11.5689 12.9793 11.842 12.0689 11.858H11.8992C10.6954 11.8368 9.54786 11.3669 8.70146 10.5483C7.85506 9.72981 7.37679 8.62752 7.36869 7.47664ZM3.03979 20.9858C3.16585 18.8137 4.14934 16.7683 5.79171 15.2624C7.43408 13.7564 9.61299 12.9022 11.8886 12.8722H12.0689C14.3453 12.8998 16.5256 13.7533 18.1685 15.2597C19.8114 16.7661 20.7941 18.8129 20.9177 20.9858H3.03979Z" fill="black"/>
<path d="M14.6472 12.2231L13.9708 10.8843L10.4521 12.662L14.2625 13.6729L14.6472 12.2231ZM9.34216 12.2231L9.72834 13.6725L13.5317 12.6592L10.0186 10.8843L9.34216 12.2231ZM2 21.4422L0.5 21.4384V21.4422H2ZM2 22H0.5V23.5H2V22ZM22 22V23.5H23.5V22H22ZM22 21.4929L20.5 21.4888V21.4929H22ZM7.36869 7.47664L5.86873 7.4872L5.86873 7.4872L7.36869 7.47664ZM12.0689 11.858V13.358H12.0821L12.0953 13.3578L12.0689 11.858ZM11.8992 11.858L11.8728 13.3578L11.886 13.358H11.8992V11.858ZM3.03979 20.9858L1.54231 20.8989L1.4502 22.4858H3.03979V20.9858ZM11.8886 12.8722V11.3722H11.8787L11.8688 11.3723L11.8886 12.8722ZM12.0689 12.8722L12.0872 11.3723L12.0781 11.3722H12.0689V12.8722ZM20.9177 20.9858V22.4858H22.5055L22.4153 20.9006L20.9177 20.9858ZM15.3236 13.5619C16.7349 12.8489 17.8702 11.6973 18.5346 10.278L15.8175 9.00617C15.4463 9.79914 14.8011 10.4648 13.9708 10.8843L15.3236 13.5619ZM18.5346 10.278C19.1996 8.85728 19.3495 7.25928 18.9561 5.74309L16.0522 6.49653C16.2692 7.3327 16.188 8.21465 15.8175 9.00617L18.5346 10.278ZM18.9561 5.74309C18.5629 4.22797 17.6541 2.89593 16.3905 1.95103L14.5939 4.3536C15.3273 4.90201 15.835 5.65931 16.0522 6.49653L18.9561 5.74309ZM16.3905 1.95103C15.128 1.00697 13.5804 0.5 11.9947 0.5V3.5C12.9444 3.5 13.8594 3.80434 14.5939 4.3536L16.3905 1.95103ZM11.9947 0.5C10.409 0.5 8.8614 1.00697 7.5989 1.95103L9.39547 4.3536C10.13 3.80434 11.0449 3.5 11.9947 3.5V0.5ZM7.5989 1.95103C6.33528 2.89593 5.42641 4.22797 5.03329 5.74309L7.93714 6.49653C8.15437 5.65931 8.66208 4.90201 9.39547 4.3536L7.5989 1.95103ZM5.03329 5.74309C4.6399 7.25928 4.78975 8.85728 5.4548 10.278L8.17186 9.00617C7.80135 8.21465 7.72019 7.3327 7.93714 6.49653L5.03329 5.74309ZM5.4548 10.278C6.11917 11.6973 7.25445 12.8489 8.66575 13.5619L10.0186 10.8843C9.18826 10.4648 8.54305 9.79914 8.17186 9.00617L5.4548 10.278ZM8.95598 10.7737C6.54578 11.4158 4.40867 12.7965 2.87747 14.7191L5.22418 16.5881C6.34385 15.1822 7.9229 14.1536 9.72834 13.6725L8.95598 10.7737ZM2.87747 14.7191C1.34528 16.643 0.506103 19.0024 0.500005 21.4384L3.5 21.4459C3.50437 19.6988 4.10551 17.9927 5.22418 16.5881L2.87747 14.7191ZM0.5 21.4422V22H3.5V21.4422H0.5ZM2 23.5H22V20.5H2V23.5ZM23.5 22V21.4929H20.5V22H23.5ZM23.5 21.497C23.5066 19.0492 22.6718 16.6752 21.1362 14.7391L18.7858 16.6035C19.9068 18.0168 20.5047 19.7333 20.5 21.4888L23.5 21.497ZM21.1362 14.7391C19.6015 12.8044 17.4543 11.4159 15.0318 10.7733L14.2625 13.6729C16.0772 14.1544 17.6637 15.1888 18.7858 16.6035L21.1362 14.7391ZM8.86865 7.46609C8.86472 6.90709 9.03346 6.35371 9.36208 5.87515L6.88902 4.17692C6.21834 5.1536 5.86041 6.3055 5.86873 7.4872L8.86865 7.46609ZM9.36208 5.87515C9.69132 5.39569 10.1687 5.01009 10.7419 4.77693L9.61146 1.99806C8.50896 2.44655 7.55908 3.20113 6.88902 4.17692L9.36208 5.87515ZM10.7419 4.77693C11.3155 4.54359 11.9523 4.4766 12.5696 4.58717L13.0985 1.63417C11.9259 1.42412 10.7135 1.54976 9.61146 1.99806L10.7419 4.77693ZM12.5696 4.58717C13.1866 4.6977 13.7471 4.97886 14.1835 5.38563L16.229 3.19117C15.3616 2.38262 14.2714 1.84425 13.0985 1.63417L12.5696 4.58717ZM14.1835 5.38563C14.6191 5.79173 14.911 6.30364 15.0337 6.85267L17.9615 6.19861C17.7038 5.04528 17.0971 4.00039 16.229 3.19117L14.1835 5.38563ZM15.0337 6.85267C15.1562 7.40112 15.1069 7.97235 14.8892 8.49761L17.6606 9.64625C18.1136 8.55315 18.2193 7.35252 17.9615 6.19861L15.0337 6.85267ZM14.8892 8.49761C14.6711 9.02374 14.2905 9.48741 13.7845 9.82262L15.4412 12.3237C16.4319 11.6674 17.2079 10.7385 17.6606 9.64625L14.8892 8.49761ZM13.7845 9.82262C13.2778 10.1583 12.6717 10.3471 12.0425 10.3582L12.0953 13.3578C13.287 13.3368 14.4511 12.9795 15.4412 12.3237L13.7845 9.82262ZM12.0689 10.358H11.8992V13.358H12.0689V10.358ZM11.9255 10.3582C11.0922 10.3436 10.3107 10.0179 9.74422 9.47008L7.65869 11.6266C8.78503 12.7159 10.2986 13.3301 11.8728 13.3578L11.9255 10.3582ZM9.74422 9.47008C9.17991 8.92435 8.87385 8.20378 8.86865 7.46609L5.86873 7.4872C5.87974 9.05126 6.53021 10.5353 7.65869 11.6266L9.74422 9.47008ZM4.53727 21.0727C4.64012 19.3006 5.44294 17.6173 6.80545 16.368L4.77797 14.1568C2.85574 15.9193 1.69158 18.3269 1.54231 20.8989L4.53727 21.0727ZM6.80545 16.368C8.16987 15.1169 9.99263 14.3974 11.9084 14.3721L11.8688 11.3723C9.23335 11.4071 6.69828 12.396 4.77797 14.1568L6.80545 16.368ZM11.8886 14.3722H12.0689V11.3722H11.8886V14.3722ZM12.0507 14.3721C13.9667 14.3954 15.7902 15.1141 17.1548 16.3653L19.1823 14.1541C17.261 12.3924 14.7239 11.4043 12.0872 11.3723L12.0507 14.3721ZM17.1548 16.3653C18.5174 17.6147 19.3193 19.2986 19.4202 21.071L22.4153 20.9006C22.2689 18.3271 21.1054 15.9175 19.1823 14.1541L17.1548 16.3653ZM20.9177 19.4858H3.03979V22.4858H20.9177V19.4858Z" fill="black" mask="url(#path-1-inside-1)"/>
</svg>
